<svg width="60" height="60" viewBox="0 0 60 60" fill="none" xmlns="http://www.w3.org/2000/svg">
<path d="M49.1625 42.0275C48.4703 43.6412 47.615 45.1801 46.61 46.62C45.2675 48.5375 44.165 49.8625 43.32 50.6C42.0075 51.805 40.5975 52.425 39.09 52.46C38.01 52.46 36.705 52.1525 35.185 51.5275C33.66 50.905 32.26 50.6 30.9775 50.6C29.635 50.6 28.195 50.905 26.6525 51.5275C25.1125 52.1525 23.8675 52.48 22.915 52.51C21.4725 52.5725 20.03 51.9375 18.5925 50.6C17.675 49.8 16.5275 48.425 15.15 46.48C13.675 44.4075 12.4625 41.995 11.5125 39.2525C10.495 36.285 9.98505 33.415 9.98505 30.635C9.98505 27.4525 10.6725 24.705 12.05 22.405C13.0919 20.5987 14.5814 19.0911 16.375 18.0275C18.1437 16.9667 20.1628 16.3955 22.225 16.3725C23.375 16.3725 24.8825 16.7275 26.75 17.4275C28.6175 18.1275 29.8175 18.4825 30.34 18.4825C30.735 18.4825 32.0625 18.065 34.3225 17.2375C36.455 16.47 38.255 16.1525 39.73 16.2775C43.73 16.6 46.7325 18.175 48.73 21.015C45.155 23.1825 43.3875 26.215 43.4225 30.1075C43.4525 33.14 44.555 35.6625 46.715 37.665C47.67 38.5788 48.7842 39.3101 50.0025 39.8225C49.7375 40.59 49.4575 41.3225 49.1625 42.0275V42.0275ZM39.995 5.95C39.995 8.325 39.125 10.545 37.3975 12.5975C35.3075 15.0375 32.7825 16.45 30.045 16.2275C30.0092 15.9288 29.9917 15.6283 29.9925 15.3275C29.9925 13.045 30.9825 10.605 32.75 8.6075C33.63 7.5975 34.75 6.755 36.1075 6.085C37.4625 5.425 38.7425 5.06 39.9475 4.9975C39.98 5.3175 39.995 5.635 39.995 5.95V5.95Z" fill="black"/>
</svg>
