<svg width="60" height="60" viewBox="0 0 60 60" fill="none" xmlns="http://www.w3.org/2000/svg">
<path d="M18.5067 13.4709H37.0195C37.5059 13.4709 37.9001 13.0766 37.9001 12.5901C37.9001 12.1037 37.5059 11.7093 37.0195 11.7093H18.5067C18.0202 11.7093 17.6259 12.1037 17.6259 12.5901C17.6259 13.0766 18.0202 13.4709 18.5067 13.4709Z" fill="black"/>
<path d="M1.94988 22.0828H20.4625C20.949 22.0828 21.3433 21.6884 21.3433 21.202C21.3433 20.7155 20.949 20.3213 20.4625 20.3213H1.94988C1.46342 20.3213 1.06909 20.7155 1.06909 21.202C1.06909 21.6884 1.46342 22.0828 1.94988 22.0828Z" fill="black"/>
<path d="M6.91968 31.1449C6.91968 31.6314 7.31401 32.0258 7.80047 32.0258H26.3131C26.7995 32.0258 27.1939 31.6314 27.1939 31.1449C27.1939 30.6585 26.7995 30.2643 26.3131 30.2643H7.80047C7.31401 30.2643 6.91968 30.6585 6.91968 31.1449Z" fill="black"/>
<path d="M17.5145 41.3816H0.880792C0.394333 41.3816 0 41.7758 0 42.2623C0 42.7487 0.394333 43.1431 0.880792 43.1431H17.5145C18.0009 43.1431 18.3953 42.7487 18.3953 42.2623C18.3953 41.7758 18.0009 41.3816 17.5145 41.3816Z" fill="black"/>
<path d="M47.4441 18.9932C50.1009 18.9932 52.2547 16.8391 52.2547 14.1822C52.2547 11.5253 50.1007 9.37137 47.4441 9.37137C44.7867 9.37137 42.6325 11.5254 42.6325 14.1822C42.6324 16.8391 44.7866 18.9932 47.4441 18.9932Z" fill="black"/>
<path d="M55.3574 17.6078C52.595 21.4773 48.8959 21.9253 44.9154 19.5623C44.6445 19.4017 43.4423 18.7393 43.1761 18.5811C36.7727 14.7797 30.3768 16.2705 26.0875 22.2772C24.2647 24.832 28.4804 27.2536 30.2827 24.7286C32.4989 21.6251 35.3169 20.7271 38.3989 21.7101C36.8208 24.4493 35.4411 27.1718 33.4943 31.0399C31.547 34.9079 27.2476 37.9969 23.1164 35.581C20.1356 33.8387 17.4474 38.121 20.4193 39.8579C26.0593 43.1541 32.6723 41.1301 36.0482 36.8453C36.1653 36.9079 36.2891 36.9644 36.4249 37.0118C39.1827 37.9727 42.7979 40.5308 43.8995 41.4374C45.0007 42.3441 46.8928 46.9627 48.0164 49.2833C49.3794 52.0991 53.7814 50.0482 52.4133 47.2205C51.1397 44.5876 49.0018 39.3327 47.3343 38.0032C45.9967 36.9369 43.3999 34.9525 41.1973 33.8267C42.6874 30.9404 44.2389 28.0852 45.8722 25.2794C51.0785 26.8745 56.0271 24.9955 59.5515 20.0586C61.3757 17.5042 57.161 15.0826 55.3574 17.6078Z" fill="black"/>
</svg>
