<svg width="60" height="60" viewBox="0 0 60 60" fill="none" xmlns="http://www.w3.org/2000/svg">
<path d="M15.8262 43.459C15.8262 44.83 16.9453 45.9492 18.3223 45.9492H21.1758V53.0039C21.1758 54.791 22.6114 56.25 24.375 56.25C26.1446 56.25 27.5742 54.7968 27.5742 53.0039V45.9433H32.5547V52.998C32.5547 54.7851 33.9903 56.2441 35.7539 56.2441C37.5235 56.2441 38.9532 54.791 38.9532 52.998V45.9433H41.8067C43.1836 45.9433 44.3028 44.8242 44.3028 43.4531V20.2968H15.8262V43.459V43.459ZM36.75 8.29685L39.3809 4.48825C39.5332 4.2656 39.4981 3.96677 39.293 3.82028C39.0879 3.67966 38.795 3.74997 38.6426 3.97263L35.9121 7.93356C34.1133 7.22458 32.1094 6.832 30.0059 6.832C27.9024 6.832 25.8985 7.22458 24.0996 7.93356L21.3692 3.97849C21.2168 3.75583 20.9239 3.67966 20.7188 3.82614C20.5137 3.96677 20.4785 4.25974 20.6309 4.49411L23.2617 8.30271C19.0782 10.248 16.1485 13.9336 15.7735 18.2402H44.25C43.8633 13.9277 40.9278 10.2422 36.75 8.29685V8.29685ZM23.9942 14.3027C23.6824 14.3027 23.3777 14.2103 23.1185 14.0371C22.8593 13.8639 22.6573 13.6177 22.538 13.3297C22.4187 13.0417 22.3875 12.7248 22.4483 12.419C22.5091 12.1133 22.6592 11.8324 22.8796 11.612C23.1001 11.3916 23.3809 11.2415 23.6867 11.1806C23.9924 11.1198 24.3093 11.151 24.5973 11.2703C24.8854 11.3896 25.1315 11.5917 25.3047 11.8509C25.4779 12.1101 25.5703 12.4148 25.5703 12.7265C25.5693 13.1442 25.4029 13.5445 25.1075 13.8399C24.8121 14.1352 24.4119 14.3016 23.9942 14.3027V14.3027ZM36.2051 14.3027C35.8934 14.3027 35.5886 14.2103 35.3294 14.0371C35.0702 13.8639 34.8682 13.6177 34.7489 13.3297C34.6296 13.0417 34.5984 12.7248 34.6592 12.419C34.72 12.1133 34.8702 11.8324 35.0906 11.612C35.311 11.3916 35.5919 11.2415 35.8976 11.1806C36.2034 11.1198 36.5203 11.151 36.8083 11.2703C37.0963 11.3896 37.3425 11.5917 37.5156 11.8509C37.6888 12.1101 37.7813 12.4148 37.7813 12.7265C37.7802 13.1442 37.6138 13.5445 37.3184 13.8399C37.0231 14.1352 36.6228 14.3016 36.2051 14.3027ZM49.2949 20.2031C47.5254 20.2031 46.0957 21.6562 46.0957 23.4492V36.1289C46.0957 37.916 47.5313 39.375 49.2949 39.375C51.0645 39.375 52.4942 37.9218 52.4942 36.1289V23.4433C52.5 21.6504 51.0703 20.2031 49.2949 20.2031ZM10.7051 20.2031C8.93558 20.2031 7.50589 21.6562 7.50589 23.4492V36.1289C7.50589 37.916 8.94144 39.375 10.7051 39.375C12.4746 39.375 13.9043 37.9218 13.9043 36.1289V23.4433C13.9043 21.6504 12.4688 20.2031 10.7051 20.2031Z" fill="black"/>
</svg>
