<svg width="60" height="60" viewBox="0 0 60 60" fill="none" xmlns="http://www.w3.org/2000/svg">
<path d="M21.6125 10.9C25.5225 18.03 27.51 23.7625 27.51 27.7C27.51 31.6375 25.65 34.94 23.845 36.5C23.7 36.625 23.5375 36.74 23.355 36.8425L23.07 36.985C22.8813 37.0705 22.6728 37.1027 22.4671 37.0782C22.2614 37.0536 22.0664 36.9733 21.9031 36.8458C21.7398 36.7183 21.6145 36.5486 21.5408 36.355C21.4671 36.1614 21.4478 35.9513 21.485 35.7475L21.5475 35.5275C23.0775 31.74 23.82 28.0175 23.76 24.3675C23.7513 23.8811 23.5539 23.417 23.2095 23.0734C22.865 22.7298 22.4005 22.5336 21.914 22.5261C21.4276 22.5186 20.9573 22.7005 20.6024 23.0334C20.2476 23.3663 20.0361 23.824 20.0125 24.31L20.0225 24.3675C20.0354 25.3029 19.9886 26.2381 19.8825 27.1675L19.7175 28.3625L19.6125 28.955L19.4425 29.78L19.1875 30.81L19.08 31.2C18.655 32.705 18.0825 34.2325 17.37 35.7825C15.4625 39.9275 12.1725 42.97 7.58998 44.865C7.36247 44.9592 7.11862 45.0077 6.87237 45.0077C6.62611 45.0077 6.38227 44.9592 6.15477 44.8649C5.92726 44.7707 5.72055 44.6325 5.54643 44.4584C5.37232 44.2842 5.2342 44.0775 5.13998 43.85C5.04576 43.6225 4.99727 43.3786 4.99728 43.1324C4.9973 42.8861 5.04582 42.6423 5.14007 42.4148C5.23432 42.1873 5.37246 41.9806 5.5466 41.8065C5.72074 41.6323 5.92747 41.4942 6.15498 41.4C8.56748 40.4025 10.4975 39.055 11.965 37.3475C7.80748 36.035 5.38998 33.17 5.05748 29.1725C4.68248 24.6475 6.38748 21.585 10.7075 18.1425L11.9325 17.1975L12.8225 16.525L13.7475 15.8025C15.8275 14.12 17.39 12.465 18.4375 10.8525C19.1875 9.6925 20.94 9.6775 21.6125 10.9025V10.9ZM42.5 15C44.4126 14.9999 46.253 15.7304 47.6448 17.0423C49.0366 18.3542 49.8746 20.1482 49.9875 22.0575L50 22.5V25L52.5 25.0425C53.1104 25.0422 53.6998 25.2653 54.1571 25.6696C54.6144 26.074 54.908 26.6316 54.9825 27.2375L55.0025 27.5425V32.5425C55.0025 33.1475 54.7831 33.732 54.385 34.1876C53.9869 34.6432 53.437 34.9389 52.8375 35.02L52.5025 35.045L50 34.995V37.495C50.0001 39.408 49.2692 41.2488 47.9568 42.6407C46.6444 44.0325 44.8497 44.8703 42.94 44.9825L42.5 45H20.6075C19.9664 45.0051 19.3479 44.7637 18.8797 44.3256C18.4116 43.8876 18.1296 43.2865 18.092 42.6465C18.0545 42.0065 18.2642 41.3765 18.6779 40.8868C19.0916 40.397 19.6777 40.0849 20.315 40.015L20.6075 40H22.1825L22.37 39.9875L22.6325 39.94C24.49 39.5325 30 36.93 30 27.5425C30 24.5025 29.245 21.1225 27.7375 17.4075C27.6371 17.1606 27.5945 16.8939 27.6129 16.628C27.6312 16.3621 27.7101 16.1039 27.8435 15.8731C27.9769 15.6423 28.1612 15.445 28.3824 15.2963C28.6036 15.1476 28.8559 15.0514 29.12 15.015L29.3575 15H42.5Z" fill="black"/>
</svg>
