<svg id="Layer_1" data-name="Layer 1" xmlns="http://www.w3.org/2000/svg" viewBox="0 0 109.445 57.296"><defs><style>.cls-1{fill:#14213d;}.cls-2{fill:#fca311;}</style></defs><path class="cls-1" d="M66.709,37.142a1.024,1.024,0,0,0,0,2.047,5.116,5.116,0,0,1,0,10.231,1.024,1.024,0,0,0,0,2.047,7.163,7.163,0,0,0,0-14.325Z" transform="translate(-47 -15.656)"/><path class="cls-2" d="M66.709,40.212a1.023,1.023,0,1,0,0,2.046,2.049,2.049,0,0,1,2.046,2.047,1.023,1.023,0,1,0,2.046,0A4.1,4.1,0,0,0,66.709,40.212Z" transform="translate(-47 -15.656)"/><path d="M66.709,34.073a1.023,1.023,0,1,0,0,2.046A8.186,8.186,0,1,1,60.925,50.1a1.023,1.023,0,0,0-1.445,1.449,10.232,10.232,0,1,0,7.229-17.473Z" transform="translate(-47 -15.656)"/><rect class="cls-2" y="18.417" width="2.046" height="6.139"/><rect class="cls-1" y="28.648" width="2.046" height="10.198"/><path d="M77.645,26.172,75.894,15.656H57.478L55.723,26.173a6.119,6.119,0,0,0-4.384,5.854V56.582a6.119,6.119,0,0,0,4.384,5.854l1.755,10.517H75.894l1.751-10.516a6.119,6.119,0,0,0,4.388-5.855V32.027A6.119,6.119,0,0,0,77.645,26.172ZM59.211,17.7H74.16l1.376,8.185H57.843Zm14.949,53.2H59.211l-1.368-8.185H75.536Zm5.827-14.324a4.1,4.1,0,0,1-4.093,4.093H57.478a4.1,4.1,0,0,1-4.093-4.093V32.027a4.1,4.1,0,0,1,4.093-4.093H75.894a4.1,4.1,0,0,1,4.093,4.093Z" transform="translate(-47 -15.656)"/><path d="M102.07,42.848,96.821,29.726,91.5,42.848l-6.9-18.1H88l3.7,10.5,3.974-10.5h2.474l3.9,10.5,3.8-10.5h3.125Z" transform="translate(-47 -15.656)"/><path d="M119.571,34.525v7.723H116.8v-1.5a4.8,4.8,0,0,1-3.9,1.8,4.006,4.006,0,0,1-4.274-3.974c0-2.275,2.075-3.924,4.649-3.924a5.756,5.756,0,0,1,3.3.85v-.675c0-1.55-1.5-2.05-2.549-2.05a9.617,9.617,0,0,0-3.549.875l-.975-2.474a11.993,11.993,0,0,1,4.674-1.075C117.572,30.1,119.571,31.826,119.571,34.525Zm-3,4.149V37.449a5.992,5.992,0,0,0-2.7-.6c-.925,0-2.2.4-2.2,1.674,0,1.249,1.224,1.525,2.148,1.525A3.512,3.512,0,0,0,116.572,38.674Z" transform="translate(-47 -15.656)"/><path d="M121.624,30.4h2.325V26.877h3V30.4h3.574v2.7h-3.574v4.774c0,1.45.75,1.875,1.551,1.875a2.374,2.374,0,0,0,1.249-.425l1.1,2.449a5.391,5.391,0,0,1-2.849.775,3.965,3.965,0,0,1-4.049-4.2V33.1h-2.325Z" transform="translate(-47 -15.656)"/><path d="M141.471,38.3l1.974,2a6.409,6.409,0,0,1-4.9,2.25,6.225,6.225,0,1,1,0-12.447,6.352,6.352,0,0,1,4.849,2.2l-2.075,1.85a3.681,3.681,0,0,0-2.774-1.25,3.426,3.426,0,0,0,0,6.849A3.5,3.5,0,0,0,141.471,38.3Z" transform="translate(-47 -15.656)"/><path d="M156.445,34.575v7.673h-3V35.325A2.187,2.187,0,0,0,151.1,32.9a2.928,2.928,0,0,0-2.35,1.55v7.8h-3V23.353h3v8.473A4.021,4.021,0,0,1,152.1,30.1,4.245,4.245,0,0,1,156.445,34.575Z" transform="translate(-47 -15.656)"/><path class="cls-2" d="M92.281,56.868c-2.575-1.125-4.7-2.474-4.7-5.124A4.532,4.532,0,0,1,92.456,47.4a5.968,5.968,0,0,1,4.749,2.524l-1,.774A4.614,4.614,0,0,0,92.48,48.67c-2.2,0-3.6,1.325-3.6,3.074,0,2.15,1.975,3.1,4.474,4.2,2.675,1.175,4.174,2.525,4.174,4.874,0,2.825-2.3,4.674-5.223,4.674a6.241,6.241,0,0,1-5.424-3.574l1.175-.7a4.8,4.8,0,0,0,4.249,3c2.174,0,3.923-1.3,3.923-3.4C96.229,58.643,94.33,57.768,92.281,56.868Z" transform="translate(-47 -15.656)"/><path class="cls-2" d="M101.906,53.794v2.1a4.987,4.987,0,0,1,4.249-2.4,5.655,5.655,0,0,1,5.65,6,5.656,5.656,0,0,1-5.65,6,5.007,5.007,0,0,1-4.124-2.2v7.647h-1.3V53.794Zm.125,7.773a4.769,4.769,0,0,0,4.1,2.65,4.412,4.412,0,0,0,4.323-4.725,4.411,4.411,0,0,0-4.323-4.723,4.769,4.769,0,0,0-4.1,2.649Z" transform="translate(-47 -15.656)"/><path class="cls-2" d="M123.529,57.718v7.473h-1.175V63.217a5.469,5.469,0,0,1-4.3,2.274,3.968,3.968,0,0,1-4.149-3.849c0-2.5,2.3-3.849,4.524-3.849a6.894,6.894,0,0,1,3.8,1.075v-.85a3.026,3.026,0,0,0-3.348-3.249,7.692,7.692,0,0,0-3.725,1.049l-.574-1.125a8.751,8.751,0,0,1,4.273-1.2C122.03,53.494,123.529,55.394,123.529,57.718Zm-1.3,4.2V59.992a6.7,6.7,0,0,0-3.624-.949c-1.5,0-3.348.8-3.348,2.6s1.624,2.575,3.1,2.575A4.928,4.928,0,0,0,122.229,61.917Z" transform="translate(-47 -15.656)"/><path class="cls-2" d="M133.405,53.794l-.551,1.25a3.272,3.272,0,0,0-1.524-.275c-1.975,0-2.9,2.2-2.9,2.2v8.223h-1.3v-11.4h1.174v1.85a3.834,3.834,0,0,1,3.324-2.15A4.9,4.9,0,0,1,133.405,53.794Z" transform="translate(-47 -15.656)"/><path class="cls-2" d="M137.056,59.492v5.7h-1.3V46.3h1.3V59.018l5.7-5.224h1.824l-5.924,5.448,6.5,5.949h-1.925Z" transform="translate(-47 -15.656)"/></svg>